<?xml version="1.0" encoding="utf-8"?>
<!-- Generator: Adobe Illustrator 16.0.0, SVG Export Plug-In . SVG Version: 6.00 Build 0)  -->
<!DOCTYPE svg PUBLIC "-//W3C//DTD SVG 1.1//EN" "http://www.w3.org/Graphics/SVG/1.1/DTD/svg11.dtd">
<svg version="1.1" id="Layer_1" xmlns="http://www.w3.org/2000/svg" xmlns:xlink="http://www.w3.org/1999/xlink" x="0px" y="0px"
	 width="768px" height="768px" viewBox="0 0 768 768" enable-background="new 0 0 768 768" xml:space="preserve">
<image display="none" overflow="visible" width="864" height="714" xlink:href="E9F18267A766AE5F.jpg"  transform="matrix(0.138 0 0 0.138 324.4033 655.5)">
</image>
<polyline opacity="0.5" fill="#FFFFFF" stroke="#000000" stroke-width="4" stroke-miterlimit="10" points="384,743.167 
	433.5,702.167 384.833,663.167 "/>
<path opacity="0.5" fill="#FFFFFF" stroke="#000000" stroke-width="4" stroke-miterlimit="10" d="M332.5,702.75
	c0-61.916,52.333-39.583,52.333-39.583"/>
<path opacity="0.5" fill="#FFFFFF" stroke="#000000" stroke-width="4" stroke-miterlimit="10" d="M384,743.167
	c-56.542,25.231-51.5-46-51.5-46"/>
<line opacity="0.5" fill="#FFFFFF" stroke="#000000" stroke-width="4" stroke-miterlimit="10" x1="334.5" y1="702.75" x2="431.5" y2="702.75"/>
<path opacity="0.5" fill="#FFFFFF" stroke="#000000" stroke-width="4" stroke-miterlimit="10" d="M383,664.5
	c0,0-33.167,45.166-50.5,38.25"/>
<path opacity="0.5" fill="#FFFFFF" stroke="#000000" stroke-width="4" stroke-miterlimit="10" d="M336.688,703.543
	c0,0,50.797,23.659,47.417,42.012"/>
<circle opacity="0.5" fill="#FFFFFF" stroke="#000000" stroke-width="4" stroke-miterlimit="10" cx="384.833" cy="663.167" r="5"/>
<circle opacity="0.5" fill="#FFFFFF" stroke="#000000" stroke-width="4" stroke-miterlimit="10" cx="433.5" cy="702.167" r="5"/>
<circle opacity="0.5" fill="#FFFFFF" stroke="#000000" stroke-width="4" stroke-miterlimit="10" cx="332.5" cy="702.75" r="5"/>
<circle opacity="0.5" fill="#FFFFFF" stroke="#000000" stroke-width="4" stroke-miterlimit="10" cx="384" cy="743.167" r="5"/>
</svg>
