<?xml version="1.0" encoding="utf-8"?>
<!-- Generator: Adobe Illustrator 16.0.0, SVG Export Plug-In . SVG Version: 6.00 Build 0)  -->
<!DOCTYPE svg PUBLIC "-//W3C//DTD SVG 1.1//EN" "http://www.w3.org/Graphics/SVG/1.1/DTD/svg11.dtd">
<svg version="1.1" id="Layer_1" xmlns="http://www.w3.org/2000/svg" xmlns:xlink="http://www.w3.org/1999/xlink" x="0px" y="0px"
	 width="24px" height="24px" viewBox="0 0 24 24" enable-background="new 0 0 24 24" xml:space="preserve">
<title>home</title>
<path fill="#2E3D49" d="M21.051,8.432L12.576,1.84c-0.342-0.264-0.818-0.264-1.153,0L2.948,8.432
	c-0.23,0.177-0.365,0.453-0.365,0.742v10.359c0,1.561,1.266,2.824,2.825,2.824h13.184c1.56,0,2.825-1.264,2.825-2.824V9.174
	c0-0.288-0.136-0.565-0.364-0.742H21.051z M13.884,20.475h-3.767 M18.366,18.359c0,0.438-0.358,0.797-0.796,0.797h-2.388H8.817H6.43
	c-0.438,0-0.796-0.359-0.796-0.797v-7.372L12,6.033l6.366,4.954V18.359z"/>
<polyline fill="#2E3D49" points="9.803,19.822 9.803,13.785 14.119,13.785 14.119,19.822 "/>
</svg>
