<?xml version="1.0" encoding="utf-8"?>
<!-- Generator: Adobe Illustrator 16.0.0, SVG Export Plug-In . SVG Version: 6.00 Build 0)  -->
<!DOCTYPE svg PUBLIC "-//W3C//DTD SVG 1.1//EN" "http://www.w3.org/Graphics/SVG/1.1/DTD/svg11.dtd">
<svg version="1.1" id="Ebene_1" xmlns="http://www.w3.org/2000/svg" xmlns:xlink="http://www.w3.org/1999/xlink" x="0px" y="0px"
	 width="40px" height="40px" viewBox="0 0 40 40" enable-background="new 0 0 40 40" xml:space="preserve">
<circle display="none" fill="#1D1D1F" cx="20" cy="20" r="20"/>
<g id="codepen" display="none">
	<polygon display="inline" fill="#1D1D1F" points="9.8,18.2 9.8,21.8 12.4,20 	"/>
	<polygon display="inline" fill="#1D1D1F" points="18.9,15.6 18.9,10.7 10.6,16.2 14.3,18.7 	"/>
	<polygon display="inline" fill="#1D1D1F" points="29.4,16.2 21.1,10.7 21.1,15.6 25.7,18.7 	"/>
	<polygon display="inline" fill="#1D1D1F" points="10.6,23.8 18.9,29.3 18.9,24.4 14.3,21.3 	"/>
	<polygon display="inline" fill="#1D1D1F" points="21.1,24.4 21.1,29.3 29.4,23.8 25.7,21.3 	"/>
	<polygon display="inline" fill="#1D1D1F" points="20,17.5 16.2,20 20,22.5 23.8,20 	"/>
	<path display="inline" fill="#1D1D1F" d="M20,0C9,0,0,9,0,20s9,20,20,20s20-9,20-20S31,0,20,0z M32.4,23.8V23.9l0,0V24
		c0,0,0,0,0,0.1V24.2c0,0,0,0,0,0.1c0,0,0,0,0,0.101l0,0c0,0,0,0,0,0.101l0,0c0,0,0,0-0.102,0.101l0,0c0,0,0,0-0.1,0.101l0,0l0,0
		l-11.301,7.5c-0.199,0.1-0.399,0.2-0.601,0.2c-0.2,0-0.4-0.102-0.6-0.2L8.1,24.7l0,0l0,0c0,0,0,0-0.1-0.101l0,0c0,0,0,0-0.1-0.101
		l0,0c0,0,0,0,0-0.101l0,0c0,0,0,0,0-0.101c0,0,0,0,0-0.1V24.1c0,0,0,0,0-0.1v-0.1l0,0V23.8v-7.5v-0.1l0,0v-0.1c0,0,0,0,0-0.1v-0.1
		c0,0,0,0,0-0.1c0,0,0,0,0-0.1l0,0c0,0,0,0,0-0.1l0,0c0,0,0,0,0.1-0.1l0,0c0,0,0,0,0.1-0.1l0,0l0,0l11.3-7.5c0.4-0.2,0.8-0.2,1.2,0
		L31.9,15.4l0,0l0,0c0,0,0,0,0.1,0.1l0,0c0,0,0,0,0.1,0.1l0,0c0,0,0,0,0,0.1l0,0c0,0,0,0,0,0.1c0,0,0,0,0,0.1V16c0,0,0,0,0,0.1v0.1
		l0,0v0.1v7.5H32.4z"/>
	<polygon display="inline" fill="#1D1D1F" points="30.2,21.8 30.2,18.2 27.6,20 	"/>
</g>
<path fill="#2E3D49" d="M15,29h-4V16h4V29z M12.8,14.8V15l0,0c-1.4,0-2.3-1.1-2.3-2.3c0-1.2,0.9-2.2,2.3-2.2c1.4,0,2.3,1,2.3,2.2
	C15.2,13.8,14.3,14.8,12.8,14.8z M30,29h-4v-6.8c0-1.7-0.8-2.8-2.3-2.8c-1.101,0-2.101,0.8-2.4,1.5c-0.1,0.3-0.399,0.6-0.399,1V29
	h-3.799c0,0,0.1-11,0-13H21v2.2c1-0.9,1.8-2.1,4-2.1c2.7,0,5,1.8,5,5.6V29z"/>
</svg>
