<?xml version="1.0" encoding="utf-8"?>
<!-- Generator: Adobe Illustrator 16.0.0, SVG Export Plug-In . SVG Version: 6.00 Build 0)  -->
<!DOCTYPE svg PUBLIC "-//W3C//DTD SVG 1.1//EN" "http://www.w3.org/Graphics/SVG/1.1/DTD/svg11.dtd">
<svg version="1.1" id="Layer_2" xmlns="http://www.w3.org/2000/svg" xmlns:xlink="http://www.w3.org/1999/xlink" x="0px" y="0px"
	 width="40px" height="40px" viewBox="0 0 40 40" enable-background="new 0 0 40 40" xml:space="preserve">
<path fill="#2E3D49" d="M31.83,17.569c-0.159-0.775-0.396-1.54-0.705-2.27c-0.302-0.716-0.676-1.406-1.114-2.051
	c-0.432-0.64-0.926-1.24-1.473-1.786c-0.547-0.548-1.147-1.043-1.786-1.474c-0.646-0.437-1.337-0.811-2.052-1.114
	c-0.73-0.307-1.494-0.547-2.27-0.705C21.637,8.008,20.818,7.925,20,7.925s-1.636,0.083-2.433,0.246
	c-0.775,0.158-1.539,0.396-2.269,0.705c-0.715,0.303-1.405,0.677-2.05,1.114c-0.64,0.431-1.241,0.926-1.787,1.474
	c-0.546,0.545-1.041,1.146-1.473,1.786c-0.437,0.645-0.811,1.334-1.114,2.05c-0.308,0.729-0.545,1.494-0.704,2.27
	c-0.163,0.795-0.245,1.613-0.245,2.43c0,0.82,0.082,1.639,0.245,2.434c0.158,0.774,0.395,1.538,0.704,2.269
	c0.303,0.715,0.678,1.407,1.114,2.053c0.432,0.639,0.927,1.239,1.473,1.785c0.547,0.547,1.148,1.041,1.787,1.473
	c0.645,0.437,1.336,0.812,2.051,1.113c0.729,0.31,1.493,0.545,2.269,0.705c0.796,0.163,1.613,0.245,2.432,0.245
	s1.637-0.082,2.432-0.246c0.775-0.16,1.538-0.395,2.269-0.704c0.716-0.302,1.406-0.677,2.053-1.115
	c0.639-0.431,1.239-0.927,1.785-1.472c0.548-0.547,1.043-1.146,1.476-1.785c0.436-0.645,0.81-1.337,1.112-2.054
	c0.308-0.729,0.546-1.492,0.705-2.267c0.161-0.795,0.243-1.613,0.243-2.434C32.074,19.182,31.992,18.363,31.83,17.569z
	 M30.309,19.896c-0.148-0.033-3.639-0.783-7.183-0.337c-0.073-0.176-0.145-0.354-0.222-0.533c-0.215-0.505-0.446-1.004-0.687-1.496
	c4.072-1.662,5.727-4.053,5.745-4.082C29.412,15.207,30.286,17.45,30.309,19.896z M26.812,12.262
	c-0.026,0.04-1.495,2.275-5.388,3.733c-1.763-3.239-3.699-5.811-3.854-6.015C18.349,9.79,19.164,9.688,20,9.688
	C22.611,9.688,24.994,10.66,26.812,12.262z M17.531,9.988c0,0.001-0.002,0.002-0.002,0.002s-0.012,0.003-0.031,0.007
	C17.507,9.994,17.52,9.992,17.531,9.988z M15.601,10.674c0.137,0.184,2.044,2.769,3.83,5.942c-4.952,1.315-9.249,1.264-9.521,1.258
	C10.579,14.68,12.724,12.033,15.601,10.674z M9.688,19.998c0-0.109,0.004-0.216,0.009-0.326c0.181,0.006,5.276,0.12,10.585-1.468
	c0.297,0.578,0.58,1.166,0.837,1.753c-0.139,0.038-0.271,0.077-0.407,0.122c-5.565,1.8-8.387,6.807-8.387,6.807
	s0.004,0.003,0.004,0.005C10.688,25.064,9.688,22.648,9.688,19.998z M20,30.312c-2.496,0-4.785-0.888-6.568-2.364
	c0.137,0.11,0.23,0.183,0.23,0.183s1.977-4.312,8.095-6.442c0.021-0.009,0.045-0.016,0.067-0.022
	c1.451,3.771,2.05,6.929,2.203,7.829C22.788,30.02,21.429,30.312,20,30.312z M25.763,28.553c-0.105-0.623-0.653-3.649-2.008-7.367
	c3.331-0.531,6.214,0.383,6.428,0.451C29.723,24.511,28.078,26.988,25.763,28.553z"/>
</svg>
