<?xml version="1.0" encoding="utf-8"?>
<!-- Generator: Adobe Illustrator 16.0.0, SVG Export Plug-In . SVG Version: 6.00 Build 0)  -->
<!DOCTYPE svg PUBLIC "-//W3C//DTD SVG 1.1//EN" "http://www.w3.org/Graphics/SVG/1.1/DTD/svg11.dtd">
<svg version="1.1" id="Ebene_1" xmlns="http://www.w3.org/2000/svg" xmlns:xlink="http://www.w3.org/1999/xlink" x="0px" y="0px"
	 width="40px" height="40px" viewBox="0 0 40 40" enable-background="new 0 0 40 40" xml:space="preserve">
<g>
	<path fill="#2E3D49" d="M32.1,25.047V16.3v-0.1v-0.1c0-0.1,0-0.1,0-0.1v-0.1c0-0.1,0-0.1,0-0.1c0-0.1,0-0.1,0-0.1
		c0-0.1,0-0.1,0-0.1C32,15.5,32,15.5,32,15.5c-0.1-0.1-0.1-0.1-0.1-0.1L20.6,7.9c-0.399-0.2-0.8-0.2-1.2,0L8.1,15.4
		C8,15.5,8,15.5,8,15.5c-0.1,0.1-0.1,0.1-0.1,0.1c0,0.1,0,0.1,0,0.1c0,0.1,0,0.1,0,0.1c0,0.1,0,0.1,0,0.1V16c0,0.1,0,0.1,0,0.1v0.1
		v0.1v7.5V23.9V24c0,0.1,0,0.1,0,0.1v0.099c0,0.1,0,0.1,0,0.1c0,0.101,0,0.101,0,0.101c0,0.101,0,0.101,0,0.101
		C8,24.6,8,24.6,8,24.6C8.1,24.7,8.1,24.7,8.1,24.7l11.598,7.502c0.2,0.099,0.4,0.2,0.6,0.2c0.201,0,0.401-0.101,0.601-0.2
		 M21.1,10.7l8.301,5.5l-3.7,2.5L21.1,15.6V10.7z M18.9,10.7v4.9l-4.6,3.1l-3.7-2.5L18.9,10.7z M9.8,18.2l2.6,1.8l-2.6,1.8V18.2z
		 M18.9,29.3l-8.3-5.5l3.7-2.5l4.6,3.101V29.3z M20,22.5L16.2,20l3.8-2.5l3.8,2.5L20,22.5z M21.1,29.3V24.4L25.7,21.3l3.7,2.5
		L21.1,29.3z M30.2,21.8L27.6,20l2.601-1.8V21.8z"/>
</g>
</svg>
