<?xml version="1.0" encoding="utf-8"?>
<!-- Generator: Adobe Illustrator 18.1.1, SVG Export Plug-In . SVG Version: 6.00 Build 0)  -->
<svg version="1.1" xmlns="http://www.w3.org/2000/svg" xmlns:xlink="http://www.w3.org/1999/xlink" x="0px" y="0px"
	 viewBox="0 0 50.4 56.9" enable-background="new 0 0 50.4 56.9" xml:space="preserve">
<g id="Layer_1" display="none">
	<path display="inline" fill="#FFFFFF" d="M33.7,0L0,12.8c14.6,7.5,16.7,44.1,16.7,44.1l33.7-12.8C49.9,19.1,33.7,0,33.7,0z"/>
	<path display="inline" fill="#F2F2F2" d="M34.2,11.6l-20,7.6c-0.5,0.2-1.1-0.1-1.3-0.6l0,0c-0.2-0.5,0.1-1.1,0.6-1.3l19.9-7.6
		c0.5-0.2,1.1,0.1,1.3,0.6l0,0C34.9,10.8,34.7,11.4,34.2,11.6z"/>
	<g id="paragraph_copy_3_5_" display="inline">
		<path fill="#F2F2F2" d="M35.6,14.3l-20.1,7.6c-0.1,0-0.3,0-0.3-0.1l0,0c0-0.1,0-0.3,0.1-0.3l20.1-7.6c0.1,0,0.3,0,0.3,0.1l0,0
			C35.8,14.1,35.7,14.2,35.6,14.3z"/>
		<path fill="#F2F2F2" d="M36.4,15.4L16.3,23c-0.1,0-0.3,0-0.3-0.1l0,0c0-0.1,0-0.3,0.1-0.3l20.1-7.6c0.1,0,0.3,0,0.3,0.1l0,0
			C36.6,15.2,36.5,15.3,36.4,15.4z"/>
		<path fill="#F2F2F2" d="M37.2,16.5l-20.1,7.6c-0.1,0-0.3,0-0.3-0.1l0,0c0-0.1,0-0.3,0.1-0.3L37,16c0.1,0,0.3,0,0.3,0.1l0,0
			C37.4,16.3,37.3,16.5,37.2,16.5z"/>
		<path fill="#F2F2F2" d="M37.7,17.8l-20.1,7.6c-0.1,0-0.3,0-0.3-0.1l0,0c0-0.1,0-0.3,0.1-0.3l20.1-7.6c0.1,0,0.3,0,0.3,0.1l0,0
			C37.9,17.6,37.8,17.7,37.7,17.8z"/>
		<path fill="#F2F2F2" d="M38.1,19L18,26.6c-0.1,0-0.3,0-0.3-0.1l0,0c0-0.1,0-0.3,0.1-0.3l20.1-7.6c0.1,0,0.3,0,0.3,0.1l0,0
			C38.3,18.8,38.3,19,38.1,19z"/>
	</g>
	<g id="paragraph_copy_3_4_" display="inline">
		<path fill="#F2F2F2" d="M39.3,22l-20.1,7.6c-0.1,0-0.3,0-0.3-0.1l0,0c0-0.1,0-0.3,0.1-0.3l20.1-7.6c0.1,0,0.3,0,0.3,0.1l0,0
			C39.5,21.8,39.4,22,39.3,22z"/>
		<path fill="#F2F2F2" d="M39.8,23.3l-20.1,7.6c-0.1,0-0.3,0-0.3-0.1l0,0c0-0.1,0-0.3,0.1-0.3l20.1-7.6c0.1,0,0.3,0,0.3,0.1l0,0
			C39.9,23.1,39.9,23.2,39.8,23.3z"/>
		<path fill="#F2F2F2" d="M40.2,24.5l-20.1,7.6c-0.1,0-0.3,0-0.3-0.1l0,0c0-0.1,0-0.3,0.1-0.3L40,24c0.1,0,0.3,0,0.3,0.1l0,0
			C40.4,24.3,40.4,24.5,40.2,24.5z"/>
		<path fill="#F2F2F2" d="M40.7,25.8l-20.1,7.6c-0.1,0-0.3,0-0.3-0.1l0,0c0-0.1,0-0.3,0.1-0.3l20.1-7.6c0.1,0,0.3,0,0.3,0.1l0,0
			C40.9,25.6,40.8,25.7,40.7,25.8z"/>
		<path fill="#F2F2F2" d="M37.5,28.4l-16.4,6.2c-0.1,0-0.3,0-0.3-0.1l0,0c0-0.1,0-0.3,0.1-0.3l16.4-6.2c0.1,0,0.3,0,0.3,0.1l0,0
			C37.7,28.2,37.6,28.4,37.5,28.4z"/>
	</g>
	<g id="paragraph_copy_3_3_" display="inline">
		<path fill="#F2F2F2" d="M42.2,35.4L22.1,43c-0.1,0-0.3,0-0.3-0.1l0,0c0-0.1,0-0.3,0.1-0.3L42,34.9c0.1,0,0.3,0,0.3,0.1l0,0
			C42.4,35.2,42.4,35.3,42.2,35.4z"/>
		<path fill="#F2F2F2" d="M42.4,36.7l-20.1,7.6c-0.1,0-0.3,0-0.3-0.1l0,0c0-0.1,0-0.3,0.1-0.3l20.1-7.6c0.1,0,0.3,0,0.3,0.1l0,0
			C42.6,36.5,42.5,36.7,42.4,36.7z"/>
		<path fill="#F2F2F2" d="M42.6,38.1l-20.1,7.6c-0.1,0-0.3,0-0.3-0.1l0,0c0-0.1,0-0.3,0.1-0.3l20.1-7.6c0.1,0,0.3,0,0.3,0.1l0,0
			C42.7,37.9,42.7,38.1,42.6,38.1z"/>
		<path fill="#F2F2F2" d="M42.7,39.5l-20.1,7.6c-0.1,0-0.3,0-0.3-0.1l0,0c0-0.1,0-0.3,0.1-0.3L42.5,39c0.1,0,0.3,0,0.3,0.1l0,0
			C42.9,39.3,42.8,39.4,42.7,39.5z"/>
		<path fill="#F2F2F2" d="M39.5,42.1l-16.4,6.2c-0.1,0-0.3,0-0.3-0.1l0,0c0-0.1,0-0.3,0.1-0.3l16.4-6.2c0.1,0,0.3,0,0.3,0.1l0,0
			C39.7,41.9,39.6,42.1,39.5,42.1z"/>
	</g>
</g>
<g id="Layer_1_copy">
	<path fill="#FFFFFF" d="M16.5,56.8l33.8-12.4C35.7,36.7,33.9,0.1,33.9,0.1L0.2,12.5C0.4,37.6,16.5,56.8,16.5,56.8z"/>
	<path fill="#F2F2F2" d="M16.1,45.2l20-7.4c0.5-0.2,1.1,0.1,1.3,0.6l0,0c0.2,0.5-0.1,1.1-0.6,1.3l-20,7.4c-0.5,0.2-1.1-0.1-1.3-0.6
		l0,0C15.3,45.9,15.6,45.4,16.1,45.2z"/>
	<g id="paragraph_copy_3_6_">
		<path fill="#F2F2F2" d="M14.7,42.5l20.2-7.4c0.1,0,0.3,0,0.3,0.1l0,0c0,0.1,0,0.3-0.1,0.3L14.9,43c-0.1,0-0.3,0-0.3-0.1l0,0
			C14.5,42.7,14.5,42.6,14.7,42.5z"/>
		<path fill="#F2F2F2" d="M13.9,41.4L34,34c0.1,0,0.3,0,0.3,0.1l0,0c0,0.1,0,0.3-0.1,0.3L14,41.9c-0.1,0-0.3,0-0.3-0.1l0,0
			C13.7,41.6,13.7,41.4,13.9,41.4z"/>
		<path fill="#F2F2F2" d="M13.1,40.2l20.2-7.4c0.1,0,0.3,0,0.3,0.1l0,0c0,0.1,0,0.3-0.1,0.3l-20.2,7.4c-0.1,0-0.3,0-0.3-0.1l0,0
			C12.9,40.4,13,40.3,13.1,40.2z"/>
		<path fill="#F2F2F2" d="M12.6,39l20.2-7.4c0.1,0,0.3,0,0.3,0.1l0,0c0,0.1,0,0.3-0.1,0.3l-20.2,7.4c-0.1,0-0.3,0-0.3-0.1l0,0
			C12.4,39.2,12.5,39,12.6,39z"/>
		<path fill="#F2F2F2" d="M12.2,37.7l20.2-7.4c0.1,0,0.3,0,0.3,0.1l0,0c0,0.1,0,0.3-0.1,0.3l-20.2,7.4c-0.1,0-0.3,0-0.3-0.1l0,0
			C12,37.9,12,37.8,12.2,37.7z"/>
	</g>
	<g id="paragraph_copy_3_2_">
		<path fill="#F2F2F2" d="M11.1,34.7l20.2-7.4c0.1,0,0.3,0,0.3,0.1l0,0c0,0.1,0,0.3-0.1,0.3l-20.2,7.4c-0.1,0-0.3,0-0.3-0.1l0,0
			C10.9,34.9,10.9,34.8,11.1,34.7z"/>
		<path fill="#F2F2F2" d="M10.6,33.5L30.8,26c0.1,0,0.3,0,0.3,0.1l0,0c0,0.1,0,0.3-0.1,0.3l-20.2,7.4c-0.1,0-0.3,0-0.3-0.1l0,0
			C10.4,33.7,10.5,33.5,10.6,33.5z"/>
		<path fill="#F2F2F2" d="M10.1,32.2l20.2-7.4c0.1,0,0.3,0,0.3,0.1l0,0c0,0.1,0,0.3-0.1,0.3l-20.2,7.4c-0.1,0-0.3,0-0.3-0.1l0,0
			C9.9,32.4,10,32.3,10.1,32.2z"/>
		<path fill="#F2F2F2" d="M9.7,30.9l20.2-7.4c0.1,0,0.3,0,0.3,0.1l0,0c0,0.1,0,0.3-0.1,0.3L9.9,31.4c-0.1,0-0.3,0-0.3-0.1l0,0
			C9.5,31.1,9.5,31,9.7,30.9z"/>
		<path fill="#F2F2F2" d="M12.9,28.3l16.5-6.1c0.1,0,0.3,0,0.3,0.1l0,0c0,0.1,0,0.3-0.1,0.3l-16.5,6.1c-0.1,0-0.3,0-0.3-0.1l0,0
			C12.7,28.5,12.8,28.4,12.9,28.3z"/>
	</g>
	<g id="paragraph_copy_3_1_">
		<path fill="#F2F2F2" d="M8.2,21.3l20.2-7.4c0.1,0,0.3,0,0.3,0.1l0,0c0,0.1,0,0.3-0.1,0.3L8.4,21.8c-0.1,0-0.3,0-0.3-0.1l0,0
			C8,21.5,8.1,21.4,8.2,21.3z"/>
		<path fill="#F2F2F2" d="M8.1,20l20.2-7.4c0.1,0,0.3,0,0.3,0.1l0,0c0,0.1,0,0.3-0.1,0.3L8.3,20.4c-0.1,0-0.3,0-0.3-0.1l0,0
			C7.9,20.2,7.9,20,8.1,20z"/>
		<path fill="#F2F2F2" d="M7.9,18.6l20.2-7.4c0.1,0,0.3,0,0.3,0.1l0,0c0,0.1,0,0.3-0.1,0.3L8.1,19.1c-0.1,0-0.3,0-0.3-0.1l0,0
			C7.8,18.8,7.8,18.6,7.9,18.6z"/>
		<path fill="#F2F2F2" d="M7.8,17.2L28,9.8c0.1,0,0.3,0,0.3,0.1l0,0c0,0.1,0,0.3-0.1,0.3L8,17.7c-0.1,0-0.3,0-0.3-0.1l0,0
			C7.6,17.4,7.7,17.3,7.8,17.2z"/>
		<path fill="#F2F2F2" d="M11,14.6l16.5-6.1c0.1,0,0.3,0,0.3,0.1l0,0c0,0.1,0,0.3-0.1,0.3l-16.5,6.1c-0.1,0-0.3,0-0.3-0.1l0,0
			C10.9,14.8,10.9,14.7,11,14.6z"/>
	</g>
</g>
</svg>
