<?xml version="1.0" encoding="utf-8"?>
<!-- Generator: Adobe Illustrator 16.0.0, SVG Export Plug-In . SVG Version: 6.00 Build 0)  -->
<!DOCTYPE svg PUBLIC "-//W3C//DTD SVG 1.1//EN" "http://www.w3.org/Graphics/SVG/1.1/DTD/svg11.dtd">
<svg version="1.1" xmlns="http://www.w3.org/2000/svg" xmlns:xlink="http://www.w3.org/1999/xlink" x="0px" y="0px" width="800px"
	 height="772px" viewBox="0 0 800 772" enable-background="new 0 0 800 772" xml:space="preserve">
<g id="_x33_" display="none">
	<polyline display="inline" fill="none" stroke="#2E3D49" stroke-width="20" stroke-miterlimit="10" points="240,180 320,180 
		260,260 	"/>
	<path display="inline" fill="none" stroke="#2E3D49" stroke-width="20" stroke-miterlimit="10" d="M240,260h50
		c22.092,0,40,17.908,40,40s-17.908,40-40,40h-50"/>
</g>
<g id="S" display="none">
	<polyline display="inline" fill="none" stroke="#2E3D49" stroke-width="20" stroke-miterlimit="10" points="220,340 140,340 
		200,260 	"/>
	<path display="inline" fill="none" stroke="#2E3D49" stroke-width="20" stroke-miterlimit="10" d="M220,260h-50
		c-22.092,0-40-17.908-40-40s17.908-40,40-40h50"/>
</g>
<g id="S_1_" display="none">
	<polyline display="inline" fill="none" stroke="#2E3D49" stroke-width="20" stroke-miterlimit="10" points="240,340 160,340 
		220,260 	"/>
	<path display="inline" fill="none" stroke="#2E3D49" stroke-width="20" stroke-miterlimit="10" d="M240,260h-50
		c-22.092,0-40-17.908-40-40s17.908-40,40-40h50"/>
</g>
<g id="_x33__1_">
	<polyline fill="none" stroke="#2E3D49" stroke-width="20" stroke-miterlimit="10" points="240,180 320,180 260,260 	"/>
	<path fill="none" stroke="#2E3D49" stroke-width="20" stroke-miterlimit="10" d="M240,260h50c22.092,0,40,17.908,40,40
		s-17.908,40-40,40h-50"/>
</g>
<g id="_x33__1">
	<polyline fill="none" stroke="#2E3D49" stroke-width="20" stroke-miterlimit="10" points="240,150 380,150 316,234 	"/>
	<path fill="none" stroke="#2E3D49" stroke-width="20" stroke-miterlimit="10" d="M282,230h8c38.661,0,70,31.34,70,70
		s-31.34,70-70,70h-50"/>
</g>
<g id="_x33__11">
	<polyline fill="none" stroke="#2E3D49" stroke-width="20" stroke-miterlimit="10" points="240,120 440,120 360,226 	"/>
	<path fill="none" stroke="#2E3D49" stroke-width="20" stroke-miterlimit="10" d="M333.998,210.174
		C367.167,226.451,390,260.559,390,300c0,55.229-44.771,100-100,100h-50"/>
</g>
<g id="_x33__111">
	<path fill="none" stroke="#2E3D49" stroke-width="20" stroke-miterlimit="10" d="M378.003,202.314
		C403.822,226.073,420,260.147,420,298c0,71.797-58.203,130-130,130"/>
	<polyline fill="none" stroke="#2E3D49" stroke-width="20" stroke-miterlimit="10" points="290,90 500,90 398,226 	"/>
</g>
<g id="S_2_">
	<polyline fill="none" stroke="#2E3D49" stroke-width="20" stroke-miterlimit="10" points="240,340 160,340 220,260 	"/>
	<path fill="none" stroke="#2E3D49" stroke-width="20" stroke-miterlimit="10" d="M240,260h-50c-22.092,0-40-17.908-40-40
		s17.908-40,40-40h50"/>
</g>
<g id="S_1">
	<polyline fill="none" stroke="#2E3D49" stroke-width="20" stroke-miterlimit="10" points="260,370 100,370 164,286 	"/>
	<path fill="none" stroke="#2E3D49" stroke-width="20" stroke-miterlimit="10" d="M198,290h-8c-38.661,0-70-31.34-70-70
		s31.34-70,70-70h70"/>
</g>
<g id="S_11">
	<polyline fill="none" stroke="#2E3D49" stroke-width="20" stroke-miterlimit="10" points="260,400 40,400 120,294 	"/>
	<path fill="none" stroke="#2E3D49" stroke-width="20" stroke-miterlimit="10" d="M146.002,309.826
		C112.833,293.549,90,259.441,90,220c0-55.229,44.771-100,100-100h70"/>
</g>
<g id="S_111">
	<path fill="none" stroke="#2E3D49" stroke-width="20" stroke-miterlimit="10" d="M103.997,315.686
		C78.178,291.927,62,257.853,62,220c0-71.797,58.203-130,130-130h98"/>
	<polyline fill="none" stroke="#2E3D49" stroke-width="20" stroke-miterlimit="10" points="290,428 -18,428 84,292 	"/>
</g>
<g id="GUIDES">
</g>
</svg>
