<?xml version="1.0" encoding="utf-8"?>
<!-- Generator: Adobe Illustrator 16.0.0, SVG Export Plug-In . SVG Version: 6.00 Build 0)  -->
<!DOCTYPE svg PUBLIC "-//W3C//DTD SVG 1.1//EN" "http://www.w3.org/Graphics/SVG/1.1/DTD/svg11.dtd">
<svg version="1.1" id="_x33_S" xmlns="http://www.w3.org/2000/svg" xmlns:xlink="http://www.w3.org/1999/xlink" x="0px" y="0px"
	 width="40px" height="40px" viewBox="0 0 40 40" enable-background="new 0 0 40 40" xml:space="preserve">
<g>
	<path d="M17.992,21.895H11.49c-4.479,0-8.124-3.645-8.124-8.124c0-4.479,3.644-8.122,8.124-8.122h6.502v3.252H11.49
		c-2.686,0-4.872,2.185-4.872,4.87c0,2.687,2.186,4.872,4.872,4.872h6.502V21.895z"/>
</g>
<g>
	<polygon points="17.906,34.906 3.859,34.906 12.856,18.659 17.906,18.659 17.906,21.911 14.773,21.911 9.377,31.654 17.906,31.654 
			"/>
</g>
<g>
	<polygon points="27.142,21.895 22.093,21.895 22.093,18.643 25.225,18.643 30.62,8.901 22.093,8.901 22.093,5.649 36.139,5.649 	
		"/>
</g>
<g>
	<path d="M28.509,34.906h-6.503v-3.252h6.503c2.687,0,4.871-2.187,4.871-4.874c0-2.685-2.185-4.869-4.871-4.869h-6.503v-3.252h6.503
		c4.479,0,8.124,3.644,8.124,8.121C36.633,31.261,32.987,34.906,28.509,34.906z"/>
</g>
</svg>
