<?xml version="1.0" encoding="utf-8"?>
<!-- Generator: Adobe Illustrator 16.0.0, SVG Export Plug-In . SVG Version: 6.00 Build 0)  -->
<!DOCTYPE svg PUBLIC "-//W3C//DTD SVG 1.1//EN" "http://www.w3.org/Graphics/SVG/1.1/DTD/svg11.dtd">
<svg version="1.1" xmlns="http://www.w3.org/2000/svg" xmlns:xlink="http://www.w3.org/1999/xlink" x="0px" y="0px" width="40px"
	 height="40px" viewBox="0 0 40 40" enable-background="new 0 0 40 40" xml:space="preserve">
<g id="Layer_5" display="none">
	<rect display="inline" fill="#2E3D49" width="40" height="40"/>
</g>
<g id="Layer_1" display="none">
	<g id="Layer_1_1_" display="inline">
		<g>
			<polygon opacity="0.5" fill="#2E3D49" enable-background="new    " points="0,0 10,10 20,0 			"/>
			<polygon opacity="0.5" fill="#2E3D49" enable-background="new    " points="20,20 20,20 30,30 40,20 30,10 			"/>
			<polygon opacity="0.5" fill="#2E3D49" enable-background="new    " points="20,40 40,40 30,30 			"/>
			<polygon opacity="0.5" fill="#2E3D49" enable-background="new    " points="30,30 40,40 40,20 40,20 			"/>
			<polygon opacity="0.5" fill="#2E3D49" enable-background="new    " points="30,30 40,40 40,20 40,20 			"/>
			<polygon opacity="0.5" fill="#2E3D49" enable-background="new    " points="0,40 20,40 10,30 			"/>
			<polygon opacity="0.5" fill="#2E3D49" enable-background="new    " points="40,0 20,0 30,10 			"/>
			<polygon opacity="0.5" fill="#2E3D49" enable-background="new    " points="20,20 30,10 20,0 10,10 			"/>
			<polygon opacity="0.5" fill="#2E3D49" enable-background="new    " points="20,20 30,10 20,0 10,10 			"/>
			
				<rect x="2.936" y="12.916" transform="matrix(-0.7071 -0.7071 0.7071 -0.7071 2.9514 41.1956)" opacity="0.5" fill="#2E3D49" enable-background="new    " width="14.142" height="14.141"/>
			<polygon opacity="0.5" fill="#2E3D49" enable-background="new    " points="20,20 10,30 20,40 			"/>
			<polygon opacity="0.5" fill="#2E3D49" enable-background="new    " points="20,20 10,30 20,40 			"/>
		</g>
	</g>
</g>
<g id="Layer_2" display="none">
	<text transform="matrix(1 0 0 1 5.3037 31.9551)" display="inline" fill="#2E3D49" font-family="'Bazar'" font-size="39.6427">3</text>
	<g display="inline">
		<path fill="#2E3D49" d="M37.681,14.394c1.4,1.612,2.102,3.502,2.102,5.669v10.664c0,2.325-0.78,4.307-2.339,5.946
			c-1.56,1.638-3.449,2.458-5.67,2.458h-0.158H16.5v-5.353h12.618h2.655c0.74,0,1.368-0.297,1.884-0.892
			c0.515-0.595,0.772-1.314,0.772-2.16V20.062c0-0.846-0.258-1.566-0.772-2.161c-0.516-0.595-1.144-0.892-1.884-0.892l-3.996-0.017
			v-5.352l3.996,0.017 M31.773,0.994"/>
	</g>
	<text transform="matrix(-1 0 0 1 36.8037 31.9541)" fill="#2E3D49" font-family="'Bazar'" font-size="39.6427">3</text>
	<text transform="matrix(1 0 0 1 22.4619 31.4502)" fill="#2E3D49" font-family="'Bazar'" font-size="37.9528">S</text>
	<path display="inline" fill="#2E3D49" d="M31.627,0.994h2.655v5.352h-2.655c-0.74,0-1.368,0.258-1.884,0.773
		c-0.515,0.515-0.772,1.143-0.772,1.883c0,0.661,0.218,1.243,0.654,1.744c0.436,0.502,0.971,0.807,1.605,0.912
		c0.132,0,0.264,0,0.396,0L27.5,17.01l-1.78-2.616c-1.4-1.507-2.102-3.304-2.102-5.392c0-2.114,0.733-3.944,2.2-5.491
		c1.467-1.546,3.244-2.372,5.332-2.478c0.08-0.026,0.159-0.04,0.238-0.04H31.627"/>
</g>
<g id="Layer_3" display="none">
	<text transform="matrix(1 0 0 1 0.4995 34.252)" display="inline" font-family="'DubtronicInline'" font-size="41.0709">3</text>
	<text transform="matrix(1 0 0 1 11.5996 34.252)" font-family="'DubtronicInline'" font-size="41.0709">S</text>
</g>
<g id="Layer_4" display="none">
	
		<text transform="matrix(1 0 0 1 7.0801 31.0918)" display="inline" fill="#FFFFFF" font-family="'Energy-Dome-NBP'" font-size="29.3926">3</text>
	
		<text transform="matrix(1 0 0 1 18.1372 31.0918)" display="inline" fill="#FFFFFF" font-family="'Energy-Dome-NBP'" font-size="29.3926">S</text>
</g>
<g id="Layer_6" display="none">
	<g id="ET0ecC_1_" display="inline">
		<g>
			<path fill-rule="evenodd" clip-rule="evenodd" fill="#F9F9F9" d="M17.005,10.111c0.93,0,1.861,0.029,2.789-0.012
				c0.493-0.021,0.571,0.148,0.5,0.587c-0.281,1.737-0.513,3.483-0.815,5.216c-0.1,0.57,0.025,0.762,0.601,0.693
				c0.338-0.041,0.686-0.029,1.027-0.002c0.379,0.03,0.99-0.189,1.085,0.106c0.142,0.445-0.05,1-0.117,1.506
				c-0.034,0.252-0.255,0.179-0.41,0.181c-0.636,0.008-1.277,0.051-1.907-0.011C19.19,18.32,19.057,18.578,19,19.061
				c-0.096,0.8-0.211,1.601-0.38,2.388c-0.616,2.877-3.393,4.266-5.802,2.92c-1.544-0.861-2.3-2.674-1.896-4.547
				c0.376-1.743,1.84-3.098,3.554-3.223c0.852-0.062,1.712-0.044,2.567-0.021c0.404,0.011,0.558-0.127,0.61-0.522
				c0.164-1.236,0.345-2.47,0.553-3.699c0.063-0.379-0.05-0.454-0.401-0.45c-1.321,0.017-2.643-0.007-3.964,0.016
				c-0.393,0.006-0.49-0.093-0.452-0.493c0.125-1.315,0.107-1.317,1.414-1.317C15.538,10.112,16.271,10.112,17.005,10.111z
				 M15.817,18.377c-0.342,0-0.684-0.019-1.024,0.004c-1.213,0.079-2.114,1.07-2.152,2.351c-0.037,1.222,0.737,2.184,1.872,2.327
				c1.046,0.131,2.008-0.656,2.307-1.912c0.107-0.449,0.179-0.908,0.245-1.366C17.267,18.373,17.263,18.373,15.817,18.377z"/>
			<path fill-rule="evenodd" clip-rule="evenodd" fill="#F9F9F9" d="M26.76,16.568c0.025,0.001,0.049,0.001,0.074,0.001
				c1.375,0,1.494,0.178,1.102,1.518c-0.09,0.306-0.279,0.285-0.498,0.287c-0.637,0.005-1.273,0.032-1.908,0.008
				c-0.383-0.015-0.489,0.131-0.532,0.496c-0.165,1.408-0.378,2.811-0.559,4.218c-0.564,4.402-3.198,7.254-7.582,8.206
				c-0.983,0.214-1.976,0.327-2.982,0.352c-0.347,0.008-0.45-0.062-0.398-0.452c0.169-1.266,0.147-1.27,1.387-1.412
				c1.848-0.215,3.594-0.707,5.101-1.855c1.685-1.285,2.433-3.047,2.69-5.1c0.412-3.299,0.866-6.593,1.324-9.886
				c0.38-2.74,2.153-4.48,4.606-4.599c0.466-0.022,0.707,0.05,0.555,0.581c-0.055,0.186-0.068,0.386-0.074,0.581
				c-0.018,0.448-0.191,0.632-0.686,0.697c-1.337,0.175-2.16,1.033-2.445,2.305c-0.272,1.213-0.386,2.461-0.578,3.693
				c-0.04,0.258,0.053,0.362,0.303,0.361C26.026,16.565,26.394,16.567,26.76,16.568z"/>
		</g>
	</g>
</g>
<g id="Layer_7" display="none">
	
		<text transform="matrix(0.9862 0 0 1 17.9551 22.5791)" display="inline" fill="#FFFFFF" font-family="'Arista2.0Light'" font-size="22.2364">3</text>
	
		<text transform="matrix(1 0 0 1 10.5366 26.4238)" display="inline" fill="#FFFFFF" font-family="'Arista2.0Light'" font-size="22.7661">S</text>
</g>
<g id="Layer_8" display="none">
	<g display="inline">
		<path fill="#FFFFFF" d="M21,28.385c0.964,0.708,2.074,1.063,3.336,1.063c0.778,0,1.518-0.151,2.217-0.454
			c0.698-0.302,1.312-0.713,1.839-1.236s0.939-1.133,1.237-1.831c0.298-0.697,0.447-1.452,0.447-2.266
			c0-0.789-0.149-1.539-0.447-2.248s-0.71-1.331-1.237-1.866c-0.527-0.534-1.141-0.953-1.839-1.255
			c-0.699-0.302-1.438-0.453-2.217-0.453c-0.229,0-0.465,0.023-0.706,0.07c-0.24,0.047-0.469,0.087-0.688,0.122
			c-0.217,0.035-0.43,0.035-0.636,0s-0.378-0.122-0.516-0.261c-0.205-0.209-0.314-0.465-0.326-0.767
			c-0.013-0.302,0.086-0.558,0.292-0.767l5.878-5.717h-8.078c-0.298,0-0.55-0.105-0.756-0.314s-0.309-0.465-0.309-0.767
			c0-0.302,0.103-0.558,0.309-0.767c0.207-0.209,0.458-0.314,0.756-0.314h10.588c0.504,0,0.837,0.244,0.997,0.732
			c0.139,0.488,0,0.907-0.412,1.255l-5.397,5.369c0.963,0.116,1.867,0.407,2.716,0.872c0.848,0.465,1.581,1.052,2.2,1.761
			s1.106,1.516,1.461,2.422c0.355,0.907,0.533,1.872,0.533,2.894c0,1.116-0.206,2.155-0.619,3.12s-0.979,1.807-1.701,2.527
			s-1.559,1.29-2.51,1.708c-0.952,0.418-1.977,0.628-3.076,0.628c-0.917,0-1.771-0.146-2.562-0.437
			c-0.79-0.29-1.506-0.679-2.147-1.167C18.983,29.553,20.038,27.676,21,28.385z"/>
	</g>
	<g display="inline">
		<path fill="#FFFFFF" d="M8.187,30.11c0-0.308,0.107-0.567,0.32-0.781c0.213-0.212,0.473-0.319,0.78-0.319h6.956
			c0.567,0,1.1-0.105,1.597-0.318s0.923-0.497,1.278-0.853c0.354-0.354,0.639-0.773,0.852-1.26c0.212-0.484,0.319-0.999,0.319-1.543
			s-0.107-1.06-0.319-1.544c-0.213-0.484-0.498-0.904-0.852-1.26c-0.355-0.355-0.781-0.639-1.278-0.852s-1.029-0.319-1.597-0.319
			h-2.591c-0.875,0-1.691-0.172-2.449-0.515c-0.757-0.343-1.419-0.805-1.987-1.385c-0.568-0.579-1.011-1.26-1.331-2.04
			c-0.32-0.781-0.479-1.609-0.479-2.484c0-0.875,0.16-1.691,0.479-2.449c0.319-0.757,0.763-1.419,1.331-1.987
			c0.568-0.567,1.23-1.017,1.987-1.349c0.757-0.331,1.573-0.497,2.449-0.497h7.311c0.307,0,0.567,0.106,0.781,0.32
			c0.212,0.212,0.319,0.473,0.319,0.78c0,0.308-0.107,0.562-0.319,0.763c-0.214,0.201-0.475,0.302-0.781,0.302h-7.311
			c-0.568,0-1.095,0.106-1.579,0.319c-0.485,0.213-0.912,0.509-1.278,0.887c-0.366,0.379-0.656,0.811-0.869,1.295
			c-0.213,0.485-0.319,1.011-0.319,1.58c0,0.567,0.106,1.106,0.319,1.614c0.213,0.509,0.503,0.958,0.869,1.349
			c0.367,0.391,0.793,0.698,1.278,0.923c0.484,0.225,1.011,0.337,1.579,0.337h2.591c0.875,0,1.691,0.16,2.448,0.479
			s1.419,0.763,1.987,1.331c0.568,0.567,1.011,1.23,1.331,1.986c0.319,0.759,0.479,1.562,0.479,2.414
			c0,0.851-0.16,1.656-0.479,2.413c-0.18,0.424-0.396,0.816-0.653,1.177c-0.202,0.283-0.427,0.548-0.678,0.792
			c-0.278,0.273-0.58,0.518-0.904,0.733c-0.337,0.224-0.698,0.417-1.083,0.581c-0.757,0.318-1.573,0.479-2.448,0.479H9.287
			c-0.308,0-0.567-0.107-0.78-0.319C8.294,30.678,8.187,30.419,8.187,30.11z"/>
	</g>
</g>
<g id="YES" display="none">
	<path display="inline" fill="none" stroke="#FFFFFF" stroke-width="2" stroke-miterlimit="10" d="M23.416,22.25h-8.833
		c-2.992,0-5.417-2.425-5.417-5.417l0,0c0-2.991,2.425-5.417,5.417-5.417h14.833L23.416,22.25z"/>
	<path display="inline" fill="none" stroke="#FFFFFF" stroke-width="2" stroke-miterlimit="10" d="M15.88,19.417h8.833
		c2.991,0,5.417,2.426,5.417,5.416l0,0c0,2.992-2.426,5.417-5.417,5.417H9.88L15.88,19.417z"/>
</g>
<g id="YES_2" display="none">
	<path display="inline" fill="none" stroke="#FFFFFF" stroke-width="2" stroke-miterlimit="10" d="M22.428,19.272h-6.516
		c-2.207,0-3.996-1.789-3.996-3.996l0,0c0-2.207,1.789-3.995,3.996-3.995h10.942L22.428,19.272z"/>
	<path display="inline" fill="none" stroke="#FFFFFF" stroke-width="2" stroke-miterlimit="10" d="M16.869,19.395h6.515
		c2.207,0,3.996,1.79,3.996,3.995l0,0c0,2.208-1.789,3.996-3.996,3.996H12.442L16.869,19.395z"/>
</g>
<g id="YES_3_1_" display="none">
	<polyline display="inline" fill="none" stroke="#FFFFFF" stroke-width="2" stroke-miterlimit="10" points="21.911,10.281 
		28.854,10.281 24.428,18.272 21.911,18.272 	"/>
	<path display="inline" fill="none" stroke="#FFFFFF" stroke-width="2" stroke-miterlimit="10" d="M18.911,18.272h-4
		c-2.207,0-3.996-1.789-3.996-3.996l0,0c0-2.207,1.789-3.995,3.996-3.995h4"/>
	<polyline display="inline" fill="none" stroke="#FFFFFF" stroke-width="2" stroke-miterlimit="10" points="18.911,31.386 
		11.442,31.386 15.869,23.396 18.907,23.396 	"/>
	<path display="inline" fill="none" stroke="#FFFFFF" stroke-width="2" stroke-miterlimit="10" d="M21.907,23.396h3.477
		c2.207,0,3.996,1.789,3.996,3.994l0,0c0,2.208-1.789,3.996-3.996,3.996h-3.473"/>
</g>
<g id="YES_4" display="none">
	<polyline display="inline" fill="none" stroke="#FFFFFF" stroke-width="2.5" stroke-miterlimit="10" points="22.911,9.281 
		29.854,9.281 25.428,17.272 22.911,17.272 	"/>
	<path display="inline" fill="none" stroke="#FFFFFF" stroke-width="2.5" stroke-miterlimit="10" d="M17.911,17.272h-4
		c-2.207,0-3.996-1.789-3.996-3.996l0,0c0-2.207,1.789-3.995,3.996-3.995h4"/>
	<polyline display="inline" fill="none" stroke="#FFFFFF" stroke-width="2.5" stroke-miterlimit="10" points="17.911,32.386 
		10.442,32.386 14.869,24.396 17.907,24.396 	"/>
	<path display="inline" fill="none" stroke="#FFFFFF" stroke-width="2.5" stroke-miterlimit="10" d="M22.907,24.396h3.477
		c2.207,0,3.996,1.789,3.996,3.994l0,0c0,2.208-1.789,3.996-3.996,3.996h-3.473"/>
</g>
<g id="YES_5" display="none">
	<polyline display="inline" fill="none" stroke="#FFFFFF" stroke-width="2.5" stroke-miterlimit="10" points="22.911,9.281 
		29.854,9.281 25.428,17.272 22.911,17.272 	"/>
	<path display="inline" fill="none" stroke="#FFFFFF" stroke-width="2.5" stroke-miterlimit="10" d="M17.911,17.272h-4
		c-2.207,0-3.996-1.789-3.996-3.996l0,0c0-2.207,1.789-3.995,3.996-3.995h4"/>
	<polyline display="inline" fill="none" stroke="#FFFFFF" stroke-width="2.5" stroke-miterlimit="10" points="17.911,32.386 
		10.442,32.386 14.869,24.396 17.907,24.396 	"/>
	<path display="inline" fill="none" stroke="#FFFFFF" stroke-width="2.5" stroke-miterlimit="10" d="M22.907,24.396h3.477
		c2.207,0,3.996,1.789,3.996,3.994l0,0c0,2.208-1.789,3.996-3.996,3.996h-3.473"/>
</g>
<g id="YES_6" display="none">
	<g display="inline">
		<path fill="#2E3D49" d="M36,4v32H4V4H36 M40,0H0v40h40V0L40,0z"/>
	</g>
	<polyline display="inline" fill="none" stroke="#2E3D49" stroke-width="4" stroke-miterlimit="10" points="21.911,9.281 
		28.854,9.281 24.428,17.272 21.911,17.272 	"/>
	<path display="inline" fill="none" stroke="#2E3D49" stroke-width="4" stroke-miterlimit="10" d="M17.911,17.272h-4
		c-2.207,0-3.996-1.789-3.996-3.996l0,0c0-2.207,1.789-3.995,3.996-3.995h4"/>
	<polyline display="inline" fill="none" stroke="#2E3D49" stroke-width="4" stroke-miterlimit="10" points="17.911,31.386 
		10.442,31.386 14.869,23.396 17.907,23.396 	"/>
	<path display="inline" fill="none" stroke="#2E3D49" stroke-width="4" stroke-miterlimit="10" d="M21.907,23.396h3.477
		c2.207,0,3.996,1.789,3.996,3.994l0,0c0,2.208-1.789,3.996-3.996,3.996h-3.473"/>
</g>
<g id="YES_7" display="none">
	<g display="inline">
		<path fill="#2E3D49" d="M36,4v32H4V4H36 M40,0H0v40h40V0L40,0z"/>
	</g>
	<polyline display="inline" fill="none" stroke="#2E3D49" stroke-width="4" stroke-miterlimit="10" points="8.056,9.281 
		14.998,9.281 10.572,17.272 8.056,17.272 	"/>
	<path display="inline" fill="none" stroke="#2E3D49" stroke-width="4" stroke-miterlimit="10" d="M31.911,17.272h-3.999
		c-2.207,0-3.996-1.789-3.996-3.996l0,0c0-2.207,1.789-3.995,3.996-3.995h3.999"/>
	<polyline fill="none" stroke="#2E3D49" stroke-width="4" stroke-miterlimit="10" points="31.911,31.386 24.442,31.386 
		28.869,23.396 31.907,23.396 	"/>
	<path display="inline" fill="none" stroke="#2E3D49" stroke-width="4" stroke-miterlimit="10" d="M8.052,23.396h3.477
		c2.207,0,3.996,1.789,3.996,3.994l0,0c0,2.208-1.789,3.996-3.996,3.996H8.056"/>
	<path display="inline" fill="none" stroke="#2E3D49" stroke-width="4" stroke-miterlimit="10" d="M23.052,23.396h3.477
		c2.207,0,3.996,1.789,3.996,3.994l0,0c0,2.208-1.789,3.996-3.996,3.996h-3.473"/>
</g>
<g id="YES_8">
	<g>
		<path fill="#2E3D49" d="M36.5,3.5v33h-33v-33H36.5 M40,0H0v40h40V0L40,0z"/>
	</g>
	<polyline fill="none" stroke="#2E3D49" stroke-width="3.5" stroke-miterlimit="10" points="22.056,12.281 28.998,12.281 
		24.572,20.272 22.056,20.272 	"/>
	<path fill="none" stroke="#2E3D49" stroke-width="3.5" stroke-miterlimit="10" d="M17.995,20.272h-3.999
		c-2.207,0-3.996-1.789-3.996-3.996l0,0c0-2.207,1.789-3.995,3.996-3.995h3.999"/>
	<polyline fill="none" stroke="#2E3D49" stroke-width="3.5" stroke-miterlimit="10" points="17.942,28.273 11,28.273 15.426,20.282 
		17.942,20.282 	"/>
	<path fill="none" stroke="#2E3D49" stroke-width="3.5" stroke-miterlimit="10" d="M22.003,20.282h3.999
		c2.207,0,3.996,1.789,3.996,3.996l0,0c0,2.207-1.789,3.995-3.996,3.995h-3.999"/>
</g>
</svg>
