<?xml version="1.0" encoding="utf-8"?>
<!-- Generator: Adobe Illustrator 16.0.0, SVG Export Plug-In . SVG Version: 6.00 Build 0)  -->
<!DOCTYPE svg PUBLIC "-//W3C//DTD SVG 1.1//EN" "http://www.w3.org/Graphics/SVG/1.1/DTD/svg11.dtd">
<svg version="1.1" xmlns="http://www.w3.org/2000/svg" xmlns:xlink="http://www.w3.org/1999/xlink" x="0px" y="0px" width="40px"
	 height="40px" viewBox="0 0 40 40" enable-background="new 0 0 40 40" xml:space="preserve">
<g id="_x33_S">
	<g>
		<path d="M19.992,21.895H13.49c-4.479,0-8.124-3.645-8.124-8.124S9.01,5.649,13.49,5.649h6.502v3.252H13.49
			c-2.686,0-4.872,2.185-4.872,4.87c0,2.687,2.186,4.872,4.872,4.872h6.502V21.895z"/>
	</g>
	<g>
		<polygon points="19.906,34.906 5.859,34.906 14.856,18.659 19.906,18.659 19.906,21.911 16.773,21.911 11.377,31.654 
			19.906,31.654 		"/>
	</g>
	<g>
		<polygon points="25.143,21.895 20.092,21.895 20.092,18.643 23.225,18.643 28.62,8.901 20.092,8.901 20.092,5.649 34.139,5.649 		
			"/>
	</g>
	<g>
		<path d="M26.509,34.906h-6.503v-3.252h6.503c2.687,0,4.871-2.188,4.871-4.875c0-2.685-2.185-4.868-4.871-4.868h-6.503v-3.252
			h6.503c4.479,0,8.124,3.644,8.124,8.12C34.633,31.261,30.986,34.906,26.509,34.906z"/>
	</g>
</g>
<g id="Layer_2" display="none">
	<polyline display="inline" fill="none" stroke="#2E3D49" stroke-width="2" stroke-miterlimit="10" points="20.5,8.5 38,8.5 
		30.964,17.586 	"/>
	<path display="inline" fill="none" stroke="#2E3D49" stroke-width="2" stroke-miterlimit="10" d="M20.5,32.5h4.643
		c4.734,0,8.482-3.849,8.482-8.582c0-3.381-2.047-6.315-4.89-7.71"/>
	<polyline display="inline" fill="none" stroke="#2E3D49" stroke-width="2" stroke-miterlimit="10" points="20.5,32.5 2,32.5 
		8.679,23.414 	"/>
	<path display="inline" fill="none" stroke="#2E3D49" stroke-width="2" stroke-miterlimit="10" d="M20.5,8.5h-5.643
		c-4.734,0-8.661,3.827-8.661,8.561c0,3.381,1.868,6.294,4.711,7.688"/>
</g>
</svg>
