<?xml version="1.0" encoding="utf-8"?>
<!-- Generator: Adobe Illustrator 16.0.0, SVG Export Plug-In . SVG Version: 6.00 Build 0)  -->
<!DOCTYPE svg PUBLIC "-//W3C//DTD SVG 1.1//EN" "http://www.w3.org/Graphics/SVG/1.1/DTD/svg11.dtd">
<svg version="1.1" id="Layer_1" xmlns="http://www.w3.org/2000/svg" xmlns:xlink="http://www.w3.org/1999/xlink" x="0px" y="0px"
	 width="310px" height="184px" viewBox="0 0 310 184" enable-background="new 0 0 310 184" xml:space="preserve">
<circle fill="#FFFFFF" cx="35" cy="19" r="5.028"/>
<circle fill="#FFFFFF" cx="72" cy="19" r="5.028"/>
<circle display="none" fill="#FFFFFF" cx="108" cy="19" r="5.028"/>
<circle fill="#FFFFFF" cx="145" cy="19" r="5.028"/>
<circle display="none" fill="#FFFFFF" cx="35" cy="56" r="5.028"/>
<circle fill="#FFFFFF" cx="72" cy="56" r="5.028"/>
<circle fill="#FFFFFF" cx="108" cy="56" r="5.028"/>
<circle fill="#FFFFFF" cx="145" cy="56" r="5.028"/>
<circle fill="#FFFFFF" cx="35" cy="92" r="5.028"/>
<circle fill="#FFFFFF" cx="72" cy="92" r="5.028"/>
<circle fill="#FFFFFF" cx="108" cy="92" r="5.028"/>
<circle display="none" fill="#FFFFFF" cx="145" cy="92" r="5.028"/>
<circle fill="#FFFFFF" cx="180" cy="19" r="5.028"/>
<circle fill="#FFFFFF" cx="217" cy="19" r="5.028"/>
<circle display="none" fill="#FFFFFF" cx="253" cy="19" r="5.028"/>
<circle display="none" fill="#FFFFFF" cx="290" cy="19" r="5.028"/>
<circle fill="#FFFFFF" cx="180" cy="56" r="5.028"/>
<circle fill="#FFFFFF" cx="217" cy="56" r="5.028"/>
<circle fill="#FFFFFF" cx="253" cy="56" r="5.028"/>
<circle fill="#FFFFFF" cx="290" cy="56" r="5.028"/>
<circle fill="#FFFFFF" cx="180" cy="92" r="5.028"/>
<circle fill="#FFFFFF" cx="217" cy="92" r="5.028"/>
<circle fill="#FFFFFF" cx="253" cy="92" r="5.028"/>
<circle fill="#FFFFFF" cx="290" cy="92" r="5.028"/>
<circle fill="#FFFFFF" cx="35" cy="128" r="5.028"/>
<circle display="none" fill="#FFFFFF" cx="72" cy="128" r="5.028"/>
<circle fill="#FFFFFF" cx="108" cy="128" r="5.028"/>
<circle fill="#FFFFFF" cx="145" cy="128" r="5.028"/>
<circle display="none" fill="#FFFFFF" cx="35" cy="165" r="5.028"/>
<circle fill="#FFFFFF" cx="72" cy="165" r="5.028"/>
<circle fill="#FFFFFF" cx="108" cy="165" r="5.028"/>
<circle fill="#FFFFFF" cx="145" cy="165" r="5.028"/>
<circle display="none" fill="#FFFFFF" cx="35" cy="201" r="5.028"/>
<circle fill="#FFFFFF" cx="72" cy="201" r="5.028"/>
<circle display="none" fill="#FFFFFF" cx="108" cy="201" r="5.028"/>
<circle fill="#FFFFFF" cx="145" cy="201" r="5.028"/>
<circle fill="#FFFFFF" cx="180" cy="128" r="5.028"/>
<circle fill="#FFFFFF" cx="217" cy="128" r="5.028"/>
<circle display="none" fill="#FFFFFF" cx="253" cy="128" r="5.028"/>
<circle fill="#FFFFFF" cx="290" cy="128" r="5.028"/>
<circle display="none" fill="#FFFFFF" cx="180" cy="165" r="5.028"/>
<circle fill="#FFFFFF" cx="217" cy="165" r="5.028"/>
<circle fill="#FFFFFF" cx="253" cy="165" r="5.028"/>
<circle fill="#FFFFFF" cx="290" cy="165" r="5.028"/>
<circle display="none" fill="#FFFFFF" cx="180" cy="201" r="5.028"/>
<circle display="none" fill="#FFFFFF" cx="217" cy="201" r="5.028"/>
<circle fill="#FFFFFF" cx="253" cy="201" r="5.028"/>
<circle fill="#FFFFFF" cx="290" cy="201" r="5.028"/>
</svg>
