<?xml version="1.0" encoding="utf-8"?>
<!-- Generator: Adobe Illustrator 16.0.0, SVG Export Plug-In . SVG Version: 6.00 Build 0)  -->
<!DOCTYPE svg PUBLIC "-//W3C//DTD SVG 1.1//EN" "http://www.w3.org/Graphics/SVG/1.1/DTD/svg11.dtd">
<svg version="1.1" xmlns="http://www.w3.org/2000/svg" xmlns:xlink="http://www.w3.org/1999/xlink" x="0px" y="0px" width="2000px"
	 height="2000px" viewBox="0 0 2000 2000" enable-background="new 0 0 2000 2000" xml:space="preserve">
<g id="Layer_1">
	<g opacity="0.5">
		<g>
			<g opacity="0.2">
				<g>
					
						<line fill="none" stroke="#000000" stroke-width="1.1829" stroke-miterlimit="10" x1="2338.762" y1="-182.857" x2="-26.953" y2="2182.857"/>
				</g>
			</g>
		</g>
		<g>
			<circle fill="none" stroke="#000000" stroke-width="1.1829" stroke-miterlimit="10" cx="1392.476" cy="1000" r="473.143"/>
			<circle fill="none" stroke="#000000" stroke-width="1.1829" stroke-miterlimit="10" cx="1392.476" cy="1000" r="425.829"/>
			<circle fill="none" stroke="#000000" stroke-width="1.1829" stroke-miterlimit="10" cx="1392.476" cy="1000" r="354.857"/>
			<circle fill="none" stroke="#000000" stroke-width="1.1829" stroke-miterlimit="10" cx="919.333" cy="1000" r="473.143"/>
			<circle fill="none" stroke="#000000" stroke-width="1.1829" stroke-miterlimit="10" cx="919.333" cy="1000" r="425.828"/>
			<circle fill="none" stroke="#000000" stroke-width="1.1829" stroke-miterlimit="10" cx="1155.904" cy="1473.143" r="473.143"/>
			<circle fill="none" stroke="#000000" stroke-width="1.1829" stroke-miterlimit="10" cx="1155.905" cy="1473.143" r="425.829"/>
			<circle fill="none" stroke="#000000" stroke-width="1.1829" stroke-miterlimit="10" cx="1155.905" cy="1473.143" r="354.857"/>
			<circle fill="none" stroke="#000000" stroke-width="1.1829" stroke-miterlimit="10" cx="1155.905" cy="1473.143" r="307.543"/>
			<circle fill="none" stroke="#000000" stroke-width="1.1829" stroke-miterlimit="10" cx="1155.905" cy="1473.143" r="236.571"/>
			<path opacity="0.2" d="M1259.347,1329.012c-18.062,18.659-37.644,35.838-58.547,51.332c-14.363,10.647-29.35,20.5-44.896,29.494
				c-15.546-8.994-30.531-18.847-44.896-29.494c-36.823-27.296-69.546-59.808-97.069-96.451
				c-14.211-18.919-27.036-38.938-38.326-59.905c-7.565-14.051-14.439-28.528-20.582-43.387
				c-9.297-22.495-16.909-45.862-22.68-69.947c-3.887-16.219-6.941-32.761-9.109-49.583c14.583-8.25,29.646-15.749,45.135-22.443
				c22.353-9.66,45.593-17.65,69.573-23.805c37.707-9.675,77.229-14.822,117.954-14.822c66.623,0,130.026,13.777,187.527,38.627
				c15.492,6.694,30.553,14.193,45.135,22.443c-2.167,16.822-5.221,33.364-9.109,49.583c-5.769,24.085-13.383,47.452-22.68,69.947
				c-6.141,14.858-13.016,29.336-20.582,43.387c-11.29,20.967-24.112,40.986-38.325,59.905
				C1285.973,1299.734,1273.1,1314.801,1259.347,1329.012"/>
			<path fill="#FFFFFF" d="M1155.904,1118.286c-32.334,0-63.649,4.349-93.417,12.453c5.962,15.036,12.935,29.559,20.812,43.505
				c23.28-5.636,47.59-8.645,72.604-8.645c50.378,0,97.926,12.114,139.892,33.587c-11.217,21.153-24.161,41.248-38.648,60.097
				c-30.694-14.557-65.014-22.712-101.243-22.712c-8.984,0-17.847,0.519-26.572,1.494c24.558,27.128,53.254,50.432,85.087,68.935
				c-18.053,17.355-37.63,33.133-58.515,47.113c-38.699-25.906-72.918-57.984-101.24-94.83
				c-14.49-18.849-27.435-38.943-38.65-60.097c-7.366-13.895-13.989-28.244-19.81-42.999c-8.729-22.129-15.651-45.165-20.601-68.927
				c21.573-10.098,44.131-18.436,67.493-24.836c35.93-9.847,73.755-15.11,112.809-15.11c64.447,0,125.549,14.318,180.303,39.946
				c-4.949,23.762-11.873,46.798-20.601,68.927C1267.602,1131.953,1213.352,1118.286,1155.904,1118.286"/>
			<g opacity="0.2">
				<g>
					<defs>
						<rect id="SVGID_1_" x="1155.904" y="1000" width="232.655" height="409.838"/>
					</defs>
					<clipPath id="SVGID_2_">
						<use xlink:href="#SVGID_1_"  overflow="visible"/>
					</clipPath>
					<path clip-path="url(#SVGID_2_)" d="M1155.904,1000c66.623,0,130.026,13.777,187.527,38.627
						c15.492,6.694,30.553,14.193,45.135,22.443c-2.167,16.821-5.221,33.364-9.109,49.583c-5.771,24.085-13.383,47.453-22.68,69.947
						c-6.141,14.858-13.016,29.336-20.582,43.387c-11.29,20.967-24.112,40.986-38.325,59.905
						c-11.897,15.842-24.771,30.909-38.523,45.119c-18.062,18.66-37.644,35.838-58.547,51.332
						c-14.363,10.647-29.35,20.5-44.896,29.494"/>
				</g>
			</g>
		</g>
	</g>
</g>
<g id="Layer_2">
	<g id="SHIELD_red_2_">
		<path id="outer_3_" fill="#C8553C" d="M785.667,764.099c-33.211,34.299-69.144,65.875-107.799,94.457
			c-26.406,19.598-53.898,37.568-82.751,54.171c-28.582-16.603-56.078-34.573-82.754-54.171
			c-67.508-50.36-127.668-110.248-178.301-177.756c-26.133-34.843-49.814-71.591-70.503-110.248
			c-13.884-25.859-26.678-52.536-37.837-80.029c-17.15-41.377-31.034-84.387-41.923-128.757
			c-7.076-29.944-12.792-60.433-16.876-91.192c26.677-15.244,54.716-28.854,83.297-41.376
			c41.104-17.966,83.842-32.394,127.941-43.826c69.416-17.965,142.096-27.222,217.227-27.222
			c122.497,0,239.278,25.316,345.167,71.32c28.582,12.522,56.078,26.133,83.298,41.377c-3.812,31.033-9.525,61.52-16.876,91.193
			c-10.618,44.371-24.5,87.38-41.922,128.756c-11.435,27.495-23.955,53.898-37.836,80.033
			c-20.69,38.381-44.374,75.129-70.505,109.972C834.937,709.928,811.254,737.694,785.667,764.099z"/>
		<path id="F_3_" fill="#FFFFFF" d="M595.389,375.92c-59.343,0-117.052,8.166-172.04,22.867
			c10.889,27.765,23.683,54.443,38.383,80.03c43.01-10.344,87.653-15.788,133.657-15.788c92.824,0,180.206,22.321,257.514,61.793
			c-20.688,38.926-44.371,75.948-71.319,110.517c-56.348-26.676-119.773-41.919-186.466-41.919c-16.606,0-32.939,0.816-49,2.723
			c45.188,49.814,97.999,92.824,156.525,126.851c-33.211,32.121-69.144,60.977-107.799,86.563
			c-71.319-47.637-134.201-106.705-186.467-174.758c-26.676-34.572-50.63-71.595-71.32-110.521
			c-13.61-25.588-25.586-51.991-36.476-79.213c-16.062-40.832-28.854-83.298-37.839-126.853
			c39.744-18.511,81.121-34.026,124.403-45.733c66.147-17.965,135.834-27.764,207.699-27.764
			c118.688,0,231.111,26.404,331.83,73.497c-9.256,43.828-21.776,86.292-37.839,126.853
			C800.911,401.237,701.28,375.92,595.389,375.92"/>
		<path id="shade_3_" opacity="0.1" enable-background="new    " d="M595.389,158.148c122.497,0,239.278,25.316,345.167,71.32
			c28.582,12.522,56.078,26.133,83.298,41.377c-3.812,31.033-9.525,61.52-16.876,91.193c-10.618,44.371-24.5,87.38-41.922,128.756
			c-11.435,27.495-23.955,53.898-37.836,80.033c-20.69,38.651-44.374,75.4-70.505,110.246
			c-22.047,29.125-45.46,56.892-71.047,83.025c-33.211,34.299-69.144,65.875-107.799,94.457
			c-26.406,19.598-53.898,37.568-82.751,54.171"/>
	</g>
</g>
<g id="Layer_3">
	<g id="SHIELD__blue">
		<path id="outer_10_" fill="#226C82" d="M773.34,1848.971c-21.379,22.079-44.511,42.407-69.396,60.807
			c-16.999,12.617-34.697,24.185-53.272,34.873c-18.399-10.688-36.1-22.256-53.273-34.873
			c-43.458-32.421-82.188-70.972-114.781-114.431c-16.824-22.432-32.068-46.089-45.387-70.974
			c-8.938-16.646-17.174-33.818-24.358-51.519c-11.041-26.636-19.977-54.324-26.987-82.887
			c-4.556-19.277-8.236-38.904-10.865-58.705c17.173-9.814,35.224-18.576,53.624-26.638c26.46-11.565,53.973-20.853,82.362-28.213
			c44.685-11.565,91.474-17.524,139.84-17.524c78.858,0,154.036,16.298,222.203,45.913c18.399,8.062,36.1,16.822,53.624,26.637
			c-2.454,19.977-6.134,39.604-10.865,58.704c-6.835,28.564-15.772,56.252-26.988,82.888c-7.359,17.699-15.42,34.697-24.357,51.521
			c-13.319,24.707-28.564,48.364-45.387,70.796C805.058,1814.097,789.811,1831.972,773.34,1848.971z"/>
		<path id="F_7_" fill="#FFFFFF" d="M650.847,1599.079c-38.202,0-75.353,5.257-110.751,14.72
			c7.01,17.875,15.246,35.048,24.709,51.521c27.688-6.659,56.428-10.164,86.042-10.164c59.755,0,116.008,14.37,165.775,39.779
			c-13.318,25.06-28.563,48.892-45.911,71.146c-36.275-17.172-77.105-26.984-120.039-26.984c-10.69,0-21.205,0.525-31.544,1.752
			c29.09,32.067,63.088,59.755,100.764,81.661c-21.379,20.677-44.511,39.254-69.396,55.725
			c-45.912-30.666-86.393-68.692-120.038-112.501c-17.174-22.256-32.594-46.09-45.913-71.149
			c-8.762-16.472-16.471-33.47-23.481-50.993c-10.34-26.285-18.576-53.622-24.358-81.661c25.584-11.916,52.222-21.905,80.084-29.44
			c42.583-11.565,87.445-17.874,133.707-17.874c76.405,0,148.779,16.998,213.617,47.314c-5.958,28.213-14.019,55.55-24.359,81.661
			C783.153,1615.377,719.015,1599.079,650.847,1599.079"/>
		<path id="shade" opacity="0.1" enable-background="new    " d="M650.847,1458.888c78.858,0,154.036,16.298,222.203,45.913
			c18.399,8.062,36.1,16.822,53.624,26.637c-2.454,19.977-6.134,39.604-10.865,58.704c-6.835,28.564-15.772,56.252-26.988,82.888
			c-7.359,17.699-15.42,34.697-24.357,51.521c-13.319,24.883-28.564,48.539-45.387,70.972
			c-14.193,18.749-29.265,36.625-45.736,53.448c-21.379,22.079-44.511,42.407-69.396,60.807
			c-16.999,12.617-34.697,24.185-53.272,34.873"/>
	</g>
</g>
</svg>
