<?xml version="1.0" encoding="utf-8"?>
<!-- Generator: Adobe Illustrator 16.0.0, SVG Export Plug-In . SVG Version: 6.00 Build 0)  -->
<!DOCTYPE svg PUBLIC "-//W3C//DTD SVG 1.1//EN" "http://www.w3.org/Graphics/SVG/1.1/DTD/svg11.dtd">
<svg version="1.1" id="Layer_1" xmlns="http://www.w3.org/2000/svg" xmlns:xlink="http://www.w3.org/1999/xlink" x="0px" y="0px"
	 width="32px" height="32px" viewBox="0 0 32 32" enable-background="new 0 0 32 32" xml:space="preserve">
<title>arrow-left2</title>
<path fill="#2E3D49" d="M12.586,27.414l-10-10c-0.781-0.781-0.781-2.047,0-2.828l10-10c0.781-0.781,2.047-0.781,2.828,0
	c0.781,0.781,0.781,2.047,0,2.828L8.828,14H28c1.105,0,2,0.895,2,2c0,1.105-0.895,2-2,2H8.828l6.586,6.586
	C15.804,24.977,16,25.488,16,26s-0.195,1.023-0.586,1.414C14.633,28.195,13.367,28.195,12.586,27.414z"/>
</svg>
