<?xml version="1.0" encoding="utf-8"?>
<!-- Generator: Adobe Illustrator 16.0.0, SVG Export Plug-In . SVG Version: 6.00 Build 0)  -->
<!DOCTYPE svg PUBLIC "-//W3C//DTD SVG 1.1//EN" "http://www.w3.org/Graphics/SVG/1.1/DTD/svg11.dtd">
<svg version="1.1" id="Layer_1" xmlns="http://www.w3.org/2000/svg" xmlns:xlink="http://www.w3.org/1999/xlink" x="0px" y="0px"
	 width="32px" height="32px" viewBox="0 0 32 32" enable-background="new 0 0 32 32" xml:space="preserve">
<title>arrow-left2</title>
<path fill="#2E3D49" d="M19.414,4.586l10,10c0.781,0.781,0.781,2.046,0,2.828l-10,10c-0.781,0.781-2.047,0.781-2.828,0
	c-0.78-0.781-0.78-2.047,0-2.828L23.172,18H4c-1.105,0-2-0.895-2-2c0-1.105,0.895-2,2-2h19.171l-6.586-6.586
	C16.196,7.024,16,6.512,16,6s0.195-1.023,0.585-1.414C17.367,3.805,18.633,3.805,19.414,4.586z"/>
</svg>
