<?xml version="1.0" encoding="utf-8"?>
<!-- Generator: Adobe Illustrator 16.0.0, SVG Export Plug-In . SVG Version: 6.00 Build 0)  -->
<!DOCTYPE svg PUBLIC "-//W3C//DTD SVG 1.1//EN" "http://www.w3.org/Graphics/SVG/1.1/DTD/svg11.dtd">
<svg version="1.1" id="Layer_1" xmlns="http://www.w3.org/2000/svg" xmlns:xlink="http://www.w3.org/1999/xlink" x="0px" y="0px"
	 width="34px" height="32px" viewBox="0 0 34 32" enable-background="new 0 0 34 32" xml:space="preserve">
<title>volume-high</title>
<path d="M22.484,25.984c-0.383,0-0.769-0.146-1.062-0.438c-0.586-0.586-0.586-1.535,0-2.121c4.095-4.094,4.095-10.755,0-14.849
	c-0.586-0.586-0.586-1.536,0-2.121s1.536-0.586,2.121,0c2.55,2.55,3.954,5.94,3.954,9.546c0,3.606-1.404,6.996-3.954,9.546
	c-0.293,0.293-0.677,0.439-1.062,0.439l0,0v-0.002H22.484z M17.157,23.157c-0.384,0-0.768-0.146-1.061-0.439
	c-0.586-0.586-0.586-1.534,0-2.12c2.534-2.535,2.534-6.659,0-9.191c-0.586-0.586-0.586-1.536,0-2.121
	c0.586-0.585,1.535-0.586,2.121,0c3.704,3.704,3.704,9.73,0,13.435C17.924,23.012,17.54,23.158,17.157,23.157L17.157,23.157z"/>
<path d="M13,30c-0.26,0-0.516-0.102-0.707-0.293L4.586,22H1c-0.552,0-1-0.448-1-1V11c0-0.552,0.448-1,1-1h3.586l7.707-7.707
	c0.286-0.286,0.716-0.372,1.09-0.217C13.757,2.231,14,2.595,14,3v26c0,0.404-0.244,0.77-0.617,0.924C13.259,29.975,13.129,30,13,30z
	"/>
</svg>
