<?xml version="1.0" encoding="utf-8"?>
<!-- Generator: Adobe Illustrator 18.1.1, SVG Export Plug-In . SVG Version: 6.00 Build 0)  -->
<svg version="1.1" id="Layer_1" xmlns="http://www.w3.org/2000/svg" xmlns:xlink="http://www.w3.org/1999/xlink" x="0px" y="0px"
	 viewBox="0 0 137 200" enable-background="new 0 0 137 200" xml:space="preserve">
<rect x="7" y="190.9" fill="#F2F2F2" width="108" height="8.5"/>
<rect x="7" y="190.9" fill="#E6E6E6" width="54" height="8.5"/>
<rect x="0" y="180.9" fill="#F2F2F2" width="108" height="8.5"/>
<rect x="0" y="180.9" fill="#E6E6E6" width="54" height="8.5"/>
<rect x="6" y="170.9" fill="#F2F2F2" width="108" height="8.5"/>
<rect x="6" y="170.9" fill="#E6E6E6" width="54" height="8.5"/>
<rect x="6" y="160.9" fill="#F2F2F2" width="108" height="8.5"/>
<rect x="6" y="160.9" fill="#E6E6E6" width="54" height="8.5"/>
<rect x="6" y="150.9" fill="#F2F2F2" width="108" height="8.5"/>
<rect x="6" y="150.9" fill="#E6E6E6" width="54" height="8.5"/>
<rect x="12" y="140.9" fill="#F2F2F2" width="108" height="8.5"/>
<rect x="12" y="140.9" fill="#E6E6E6" width="54" height="8.5"/>
<rect x="6" y="130.9" fill="#F2F2F2" width="108" height="8.5"/>
<rect x="6" y="130.9" fill="#E6E6E6" width="54" height="8.5"/>
<rect x="6" y="120.9" fill="#F2F2F2" width="108" height="8.5"/>
<rect x="6" y="120.9" fill="#E6E6E6" width="54" height="8.5"/>
<rect x="6" y="110.9" fill="#F2F2F2" width="108" height="8.5"/>
<rect x="6" y="110.9" fill="#E6E6E6" width="54" height="8.5"/>
<rect x="14" y="100.9" fill="#F2F2F2" width="108" height="8.5"/>
<rect x="13" y="100.9" fill="#E6E6E6" width="54" height="8.5"/>
<rect x="2" y="90.9" fill="#F2F2F2" width="108" height="8.5"/>
<rect x="2" y="90.9" fill="#E6E6E6" width="54" height="8.5"/>
<rect x="2" y="80.9" fill="#F2F2F2" width="108" height="8.5"/>
<rect x="2" y="80.9" fill="#E6E6E6" width="54" height="8.5"/>
<rect x="2" y="70.9" fill="#F2F2F2" width="108" height="8.5"/>
<rect x="2" y="70.9" fill="#E6E6E6" width="54" height="8.5"/>
<rect x="6" y="60.9" fill="#F2F2F2" width="108" height="8.5"/>
<rect x="6" y="60.9" fill="#E6E6E6" width="54" height="8.5"/>
<rect x="6" y="50.9" fill="#F2F2F2" width="108" height="8.5"/>
<rect x="6" y="50.9" fill="#E6E6E6" width="54" height="8.5"/>
<rect x="15" y="40.9" fill="#F2F2F2" width="108" height="8.5"/>
<rect x="15" y="40.9" fill="#E6E6E6" width="54" height="8.5"/>
<rect x="9" y="30.9" fill="#F2F2F2" width="108" height="8.5"/>
<rect x="9" y="30.9" fill="#E6E6E6" width="54" height="8.5"/>
<rect x="18" y="20.9" fill="#F2F2F2" width="108" height="8.5"/>
<rect x="18" y="20.9" fill="#E6E6E6" width="54" height="8.5"/>
<rect x="18" y="10.9" fill="#F2F2F2" width="108" height="8.5"/>
<rect x="18" y="10.9" fill="#E6E6E6" width="54" height="8.5"/>
<rect x="29" y="0.9" fill="#F2F2F2" width="108" height="8.5"/>
<rect x="29" y="0.9" fill="#E6E6E6" width="54" height="8.5"/>
</svg>
